<?xml version="1.0" encoding="UTF-8"?>
<svg id="Layer_1" data-name="Layer 1" xmlns="http://www.w3.org/2000/svg" viewBox="0 0 3399.08 350.92">
  <defs>
    <style>
      .cls-1 {
        fill: #263c4d;
      }

      .cls-2 {
        fill: #b59872;
      }
    </style>
  </defs>
  <g>
    <path class="cls-2" d="M63.54,304.98c-11.16-3.12-21.42-7.44-30.78-12.96h-.36l1.08,15.12H5.76v-84.24h23.76c3.12,19.68,10.68,34.74,22.68,45.18,12,10.44,26.64,15.66,43.92,15.66,12.48,0,22.8-3.3,30.96-9.9,8.16-6.6,12.24-14.58,12.24-23.94,0-7.68-2.7-14.28-8.1-19.8-5.4-5.52-11.4-9.84-18-12.96-6.6-3.12-17.1-7.56-31.5-13.32-26.4-10.56-46.62-22.56-60.66-36C7.02,154.38,0,136.74,0,114.9c0-11.04,2.76-21.78,8.28-32.22,5.52-10.44,14.58-19.14,27.18-26.1,12.6-6.96,28.86-10.44,48.78-10.44,10.32,0,21.12,1.5,32.4,4.5,11.28,3,20.64,7.26,28.08,12.78h.36l-1.44-14.76h28.08v83.88h-23.76c-3.12-19.68-10.02-34.68-20.7-45-10.68-10.32-24.3-15.48-40.86-15.48-10.8,0-20.1,2.94-27.9,8.82-7.8,5.88-11.7,13.26-11.7,22.14,0,10.56,4.44,19.44,13.32,26.64,8.88,7.2,23.88,15.12,45,23.76,24.24,9.6,43.98,20.7,59.22,33.3,15.24,12.6,22.86,29.34,22.86,50.22,0,14.16-3.84,26.76-11.52,37.8-7.68,11.04-18.48,19.62-32.4,25.74-13.92,6.12-30,9.18-48.24,9.18-9.84,0-20.34-1.56-31.5-4.68Z"/>
    <path class="cls-2" d="M264.6,280.14c6.48-.24,11.4-1.02,14.76-2.34,3.36-1.32,6-4.14,7.92-8.46,1.92-4.32,2.88-11.16,2.88-20.52V76.38h-16.56c-14.16.24-25.08,5.04-32.76,14.4-7.68,9.36-11.52,23.52-11.52,42.48h-23.76l1.8-81.36h218.16l2.16,81.36h-23.76c0-18.96-3.9-33.3-11.7-43.02-7.8-9.72-18.66-14.46-32.58-14.22h-17.28v168.84c0,16.08-.48,26.88-1.44,32.4,7.92-.72,17.52-1.08,28.8-1.08v27.72h-105.12v-23.76Z"/>
    <path class="cls-2" d="M451.8,280.14c6.48-.24,11.4-1.02,14.76-2.34,3.36-1.32,6-4.14,7.92-8.46,1.92-4.32,2.88-11.16,2.88-20.52V110.94c0-13.44.48-24.24,1.44-32.4l-27,1.08v-27.72l102.24-.72c32.88-.24,58.26,5.52,76.14,17.28,17.88,11.76,26.82,30.84,26.82,57.24,0,16.56-5.34,31.26-16.02,44.1-10.68,12.84-26.46,22.26-47.34,28.26v.36c4.32,1.68,8.76,4.62,13.32,8.82,4.56,4.2,8.4,8.82,11.52,13.86l16.92,25.2c8.16,12.72,14.94,21.48,20.34,26.28,5.4,4.8,12.06,7.32,19.98,7.56v23.76h-59.4c-4.08-2.88-8.16-7.02-12.24-12.42-4.08-5.4-8.76-12.54-14.04-21.42l-26.64-43.2c-6-9.6-11.04-16.56-15.12-20.88h-18.72v38.52c0,13.68-.48,24.6-1.44,32.76,7.68-.72,17.88-1.08,30.6-1.08v27.72h-106.92v-23.76ZM589.5,166.92c8.76-8.76,13.14-22.5,13.14-41.22,0-19.92-5.1-33.12-15.3-39.6-10.2-6.48-21.42-9.72-33.66-9.72-8.4,0-14.52,1.8-18.36,5.4-3.84,3.6-5.76,11.28-5.76,23.04v73.8c7.2.96,12.96,1.44,17.28,1.44,19.68,0,33.9-4.38,42.66-13.14Z"/>
    <path class="cls-2" d="M682.19,279.06c6.24,0,11.46-1.8,15.66-5.4,4.2-3.6,7.5-7.98,9.9-13.14,2.4-5.16,5.4-12.66,9-22.5l70.2-192.6h25.2l76.68,196.2c1.92,4.8,3.96,10.74,6.12,17.82,2.16,7.08,3.48,13.02,3.96,17.82,7.92-.72,14.88-1.08,20.88-1.08v27.72h-96.84v-23.76c11.52,0,17.28-4.8,17.28-14.4,0-4.8-1.32-10.56-3.96-17.28l-7.2-19.8-78.12,1.44-5.76,16.92c-.72,1.92-2.34,6.24-4.86,12.96-2.52,6.72-4.74,12.12-6.66,16.2,7.68-.72,16.2-1.08,25.56-1.08v28.8h-77.04v-24.84ZM820.07,203.1l-16.56-45c-6.96-19.68-11.52-36.12-13.68-49.32h-.36c-3.84,17.28-8.28,33.12-13.32,47.52l-16.2,46.8h60.12Z"/>
    <path class="cls-2" d="M966.95,280.14c6.48-.24,11.4-1.02,14.76-2.34,3.36-1.32,6-4.14,7.92-8.46,1.92-4.32,2.88-11.16,2.88-20.52V76.38h-16.56c-14.16.24-25.08,5.04-32.76,14.4-7.68,9.36-11.52,23.52-11.52,42.48h-23.76l1.8-81.36h218.16l2.16,81.36h-23.76c0-18.96-3.9-33.3-11.7-43.02-7.8-9.72-18.66-14.46-32.58-14.22h-17.28v168.84c0,16.08-.48,26.88-1.44,32.4,7.92-.72,17.52-1.08,28.8-1.08v27.72h-105.12v-23.76Z"/>
    <path class="cls-2" d="M1532.85,280.14c6.48-.24,11.4-1.02,14.76-2.34,3.36-1.32,6-4.14,7.92-8.46,1.92-4.32,2.88-11.16,2.88-20.52V110.94c0-13.44.48-24.24,1.44-32.4l-27,1.08v-27.72l102.24-.72c32.4-.24,57.78,6.18,76.14,19.26,18.36,13.08,27.54,32.94,27.54,59.58,0,13.68-3.84,26.76-11.52,39.24-7.68,12.48-19.2,22.68-34.56,30.6-15.36,7.92-34.08,12.24-56.16,12.96l-14.04.36-11.88-.36v31.68c0,13.68-.48,24.6-1.44,32.76,7.68-.72,17.88-1.08,30.6-1.08v27.72h-106.92v-23.76ZM1669.47,172.32c9-9.72,13.5-23.94,13.5-42.66,0-35.52-16.08-53.28-48.24-53.28-8.4,0-14.52,1.8-18.36,5.4-3.84,3.6-5.76,11.28-5.76,23.04v81c5.04.72,10.44,1.08,16.2,1.08,19.44,0,33.66-4.86,42.66-14.58Z"/>
    <path class="cls-2" d="M1726.53,279.06c6.24,0,11.46-1.8,15.66-5.4,4.2-3.6,7.5-7.98,9.9-13.14,2.4-5.16,5.4-12.66,9-22.5l70.2-192.6h25.2l76.68,196.2c1.92,4.8,3.96,10.74,6.12,17.82,2.16,7.08,3.48,13.02,3.96,17.82,7.92-.72,14.88-1.08,20.88-1.08v27.72h-96.84v-23.76c11.52,0,17.28-4.8,17.28-14.4,0-4.8-1.32-10.56-3.96-17.28l-7.2-19.8-78.12,1.44-5.76,16.92c-.72,1.92-2.34,6.24-4.86,12.96-2.52,6.72-4.74,12.12-6.66,16.2,7.68-.72,16.2-1.08,25.56-1.08v28.8h-77.04v-24.84ZM1864.41,203.1l-16.56-45c-6.96-19.68-11.52-36.12-13.68-49.32h-.36c-3.84,17.28-8.28,33.12-13.32,47.52l-16.2,46.8h60.12Z"/>
    <path class="cls-2" d="M1983.57,280.14c6.48-.24,11.4-1.02,14.76-2.34,3.36-1.32,6-4.14,7.92-8.46,1.92-4.32,2.88-11.16,2.88-20.52V110.94c0-13.44.48-24.24,1.44-32.4l-27,1.08v-27.72l102.24-.72c32.88-.24,58.26,5.52,76.14,17.28,17.88,11.76,26.82,30.84,26.82,57.24,0,16.56-5.34,31.26-16.02,44.1-10.68,12.84-26.46,22.26-47.34,28.26v.36c4.32,1.68,8.76,4.62,13.32,8.82,4.56,4.2,8.4,8.82,11.52,13.86l16.92,25.2c8.16,12.72,14.94,21.48,20.34,26.28,5.4,4.8,12.06,7.32,19.98,7.56v23.76h-59.4c-4.08-2.88-8.16-7.02-12.24-12.42-4.08-5.4-8.76-12.54-14.04-21.42l-26.64-43.2c-6-9.6-11.04-16.56-15.12-20.88h-18.72v38.52c0,13.68-.48,24.6-1.44,32.76,7.68-.72,17.88-1.08,30.6-1.08v27.72h-106.92v-23.76ZM2121.27,166.92c8.76-8.76,13.14-22.5,13.14-41.22,0-19.92-5.1-33.12-15.3-39.6-10.2-6.48-21.42-9.72-33.66-9.72-8.4,0-14.52,1.8-18.36,5.4-3.84,3.6-5.76,11.28-5.76,23.04v73.8c7.2.96,12.96,1.44,17.28,1.44,19.68,0,33.9-4.38,42.66-13.14Z"/>
    <path class="cls-2" d="M2277.33,280.14c6.48-.24,11.4-1.02,14.76-2.34,3.36-1.32,6-4.14,7.92-8.46,1.92-4.32,2.88-11.16,2.88-20.52V76.38h-16.56c-14.16.24-25.08,5.04-32.76,14.4-7.68,9.36-11.52,23.52-11.52,42.48h-23.76l1.8-81.36h218.16l2.16,81.36h-23.76c0-18.96-3.9-33.3-11.7-43.02-7.8-9.72-18.66-14.46-32.58-14.22h-17.28v168.84c0,16.08-.48,26.88-1.44,32.4,7.92-.72,17.52-1.08,28.8-1.08v27.72h-105.12v-23.76Z"/>
    <path class="cls-2" d="M2540.84,160.26c-6-7.68-12.6-16.68-19.8-27h-.36l.72,111.6c0,13.44-.48,24.24-1.44,32.4,7.68-.72,16.68-1.08,27-1.08v27.72h-82.08v-23.76c6.48-.24,11.4-1.02,14.76-2.34,3.36-1.32,6-4.14,7.92-8.46,1.92-4.32,2.88-11.16,2.88-20.52l-.72-137.88c0-16.08.48-26.88,1.44-32.4l-27.36,1.08v-27.72h56.52l110.16,138.96c10.08,13.2,18.48,24.6,25.2,34.2h.36v-114.12c0-15.6.36-26.4,1.08-32.4l-27,1.08v-27.72h82.08v23.76c-6.48.24-11.4,1.02-14.76,2.34-3.36,1.32-6,4.14-7.92,8.46-1.92,4.32-2.88,11.16-2.88,20.52v200.52h-30.6l-115.2-147.24Z"/>
    <path class="cls-2" d="M2742.8,280.14c6.48-.24,11.4-1.02,14.76-2.34,3.36-1.32,6-4.14,7.92-8.46,1.92-4.32,2.88-11.16,2.88-20.52V110.94c0-13.44.48-24.24,1.44-32.4l-27,1.08v-27.72h180l2.16,69.84h-23.76c0-17.76-4.26-30.06-12.78-36.9-8.52-6.84-18.78-10.02-30.78-9.54l-12.96.36c-5.76.24-10.32,1.02-13.68,2.34-3.36,1.32-5.94,4.26-7.74,8.82-1.8,4.56-2.7,11.28-2.7,20.16v54h42.12c-.24-4.08-.72-14.52-1.44-31.32h27.72v87.48h-23.76c0-9.6-1.5-16.68-4.5-21.24-3-4.56-6.9-7.5-11.7-8.82-4.8-1.32-11.16-1.86-19.08-1.62l-9.36.36v59.04c0,12.96-.48,23.52-1.44,31.68h48.24c12.24,0,22.62-4.14,31.14-12.42,8.52-8.28,12.78-21.42,12.78-39.42h23.4l-1.8,79.2h-190.08v-23.76Z"/>
    <path class="cls-2" d="M2967.44,280.14c6.48-.24,11.4-1.02,14.76-2.34,3.36-1.32,6-4.14,7.92-8.46,1.92-4.32,2.88-11.16,2.88-20.52V110.94c0-13.44.48-24.24,1.44-32.4l-27,1.08v-27.72l102.24-.72c32.88-.24,58.26,5.52,76.14,17.28,17.88,11.76,26.82,30.84,26.82,57.24,0,16.56-5.34,31.26-16.02,44.1-10.68,12.84-26.46,22.26-47.34,28.26v.36c4.32,1.68,8.76,4.62,13.32,8.82,4.56,4.2,8.4,8.82,11.52,13.86l16.92,25.2c8.16,12.72,14.94,21.48,20.34,26.28,5.4,4.8,12.06,7.32,19.98,7.56v23.76h-59.4c-4.08-2.88-8.16-7.02-12.24-12.42-4.08-5.4-8.76-12.54-14.04-21.42l-26.64-43.2c-6-9.6-11.04-16.56-15.12-20.88h-18.72v38.52c0,13.68-.48,24.6-1.44,32.76,7.68-.72,17.88-1.08,30.6-1.08v27.72h-106.92v-23.76ZM3105.14,166.92c8.76-8.76,13.14-22.5,13.14-41.22,0-19.92-5.1-33.12-15.3-39.6-10.2-6.48-21.42-9.72-33.66-9.72-8.4,0-14.52,1.8-18.36,5.4-3.84,3.6-5.76,11.28-5.76,23.04v73.8c7.2.96,12.96,1.44,17.28,1.44,19.68,0,33.9-4.38,42.66-13.14Z"/>
    <path class="cls-2" d="M3275.42,304.98c-11.16-3.12-21.42-7.44-30.78-12.96h-.36l1.08,15.12h-27.72v-84.24h23.76c3.12,19.68,10.68,34.74,22.68,45.18,12,10.44,26.64,15.66,43.92,15.66,12.48,0,22.8-3.3,30.96-9.9,8.16-6.6,12.24-14.58,12.24-23.94,0-7.68-2.7-14.28-8.1-19.8-5.4-5.52-11.4-9.84-18-12.96-6.6-3.12-17.1-7.56-31.5-13.32-26.4-10.56-46.62-22.56-60.66-36-14.04-13.44-21.06-31.08-21.06-52.92,0-11.04,2.76-21.78,8.28-32.22,5.52-10.44,14.58-19.14,27.18-26.1,12.6-6.96,28.86-10.44,48.78-10.44,10.32,0,21.12,1.5,32.4,4.5,11.28,3,20.64,7.26,28.08,12.78h.36l-1.44-14.76h28.08v83.88h-23.76c-3.12-19.68-10.02-34.68-20.7-45-10.68-10.32-24.3-15.48-40.86-15.48-10.8,0-20.1,2.94-27.9,8.82-7.8,5.88-11.7,13.26-11.7,22.14,0,10.56,4.44,19.44,13.32,26.64,8.88,7.2,23.88,15.12,45,23.76,24.24,9.6,43.98,20.7,59.22,33.3,15.24,12.6,22.86,29.34,22.86,50.22,0,14.16-3.84,26.76-11.52,37.8-7.68,11.04-18.48,19.62-32.4,25.74-13.92,6.12-30,9.18-48.24,9.18-9.84,0-20.34-1.56-31.5-4.68Z"/>
  </g>
  <g>
    <polygon class="cls-2" points="1402.21 221.75 1355.9 175.44 1400.52 130.63 1378.42 108.63 1333.85 153.39 1287.59 107.12 1265.54 129.17 1311.85 175.48 1267.24 220.29 1289.33 242.29 1333.9 197.53 1380.16 243.79 1402.21 221.75"/>
    <g>
      <path class="cls-1" d="M1158.42,135.83v-36.85c58.08,0,105.33-44.4,105.33-98.98h36.85c0,74.9-63.78,135.83-142.19,135.83Z"/>
      <path class="cls-1" d="M1509.34,135.83c-78.4,0-142.19-60.93-142.19-135.83h36.85c0,54.58,47.25,98.98,105.34,98.98v36.85Z"/>
      <path class="cls-1" d="M1300.6,350.92h-36.85c0-54.58-47.25-98.98-105.33-98.98v-36.85c78.4,0,142.19,60.93,142.19,135.83Z"/>
      <path class="cls-1" d="M1404,350.92h-36.85c0-74.9,63.78-135.83,142.19-135.83v36.85c-58.08,0-105.34,44.4-105.34,98.98Z"/>
    </g>
  </g>
</svg>